<svg width="20" height="25" viewBox="0 0 20 25" fill="none" xmlns="http://www.w3.org/2000/svg">
<path d="M13.9166 0.558838C14.2843 0.558838 14.5881 0.871485 14.6362 1.27712L14.6428 1.38989L14.6429 2.32925C17.6252 2.56146 19.4514 4.75046 19.4419 8.28458V18.3961C19.4419 22.1421 17.3916 24.3824 14.096 24.3824H5.90627C2.61467 24.3824 0.560425 22.104 0.560425 18.3123V8.28458C0.560425 4.75173 2.39247 2.56213 5.36834 2.32935L5.36843 1.38989C5.36843 0.930914 5.69357 0.558838 6.09464 0.558838C6.46229 0.558838 6.76614 0.871485 6.81422 1.27712L6.82085 1.38989L6.82071 2.30868H13.1901L13.1904 1.38989C13.1904 0.930914 13.5155 0.558838 13.9166 0.558838ZM17.9891 10.4254H2.01221L2.01285 18.3123C2.01285 21.0819 3.31835 22.6192 5.66785 22.7155L5.90627 22.7203H14.096C16.604 22.7203 17.9895 21.2065 17.9895 18.3961L17.9891 10.4254ZM14.3113 17.3974C14.7124 17.3974 15.0375 17.7694 15.0375 18.2284C15.0375 18.6492 14.7643 18.9969 14.4099 19.0519L14.3113 19.0595C13.9013 19.0595 13.5761 18.6874 13.5761 18.2284C13.5761 17.8077 13.8493 17.46 14.2038 17.405L14.3113 17.3974ZM10.0146 17.3974C10.4157 17.3974 10.7408 17.7694 10.7408 18.2284C10.7408 18.6492 10.4676 18.9969 10.1131 19.0519L10.0146 19.0595C9.60456 19.0595 9.27942 18.6874 9.27942 18.2284C9.27942 17.8077 9.55262 17.46 9.90709 17.405L10.0146 17.3974ZM5.70892 17.3974C6.11 17.3974 6.43514 17.7694 6.43514 18.2284C6.43514 18.6492 6.16193 18.9969 5.80747 19.0519L5.69995 19.0595C5.29888 19.0595 4.97374 18.6874 4.97374 18.2284C4.97374 17.8077 5.24695 17.46 5.60141 17.405L5.70892 17.3974ZM14.3113 13.0908C14.7124 13.0908 15.0375 13.4629 15.0375 13.9219C15.0375 14.3426 14.7643 14.6903 14.4099 14.7453L14.3113 14.7529C13.9013 14.7529 13.5761 14.3808 13.5761 13.9219C13.5761 13.5011 13.8493 13.1534 14.2038 13.0984L14.3113 13.0908ZM10.0146 13.0908C10.4157 13.0908 10.7408 13.4629 10.7408 13.9219C10.7408 14.3426 10.4676 14.6903 10.1131 14.7453L10.0146 14.7529C9.60456 14.7529 9.27942 14.3808 9.27942 13.9219C9.27942 13.5011 9.55262 13.1534 9.90709 13.0984L10.0146 13.0908ZM5.70892 13.0908C6.11 13.0908 6.43514 13.4629 6.43514 13.9219C6.43514 14.3426 6.16193 14.6903 5.80747 14.7453L5.69995 14.7529C5.29888 14.7529 4.97374 14.3808 4.97374 13.9219C4.97374 13.5011 5.24695 13.1534 5.60141 13.0984L5.70892 13.0908ZM13.1901 3.97038H6.82071L6.82085 5.03632C6.82085 5.4953 6.49572 5.86738 6.09464 5.86738C5.72699 5.86738 5.42315 5.55473 5.37506 5.14909L5.36843 5.03632L5.3674 3.99564C3.20268 4.20191 2.01285 5.68878 2.01285 8.28458L2.01221 8.76249H17.9891L17.9895 8.28203C17.9965 5.68419 16.8127 4.2004 14.6429 3.99538L14.6428 5.03632C14.6428 5.4953 14.3177 5.86738 13.9166 5.86738C13.549 5.86738 13.2451 5.55473 13.197 5.14909L13.1904 5.03632L13.1901 3.97038Z" fill="#666666"/>
</svg>
