<svg width="20" height="23" viewBox="0 0 20 23" fill="none" xmlns="http://www.w3.org/2000/svg">
<path d="M14.0534 0.0884399C17.4059 0.0884399 19.4105 2.24845 19.442 5.86195V16.7284C19.442 20.3925 17.4321 22.5885 14.0534 22.5885H5.95006C5.51788 22.5885 5.10773 22.5525 4.72171 22.4816L4.49303 22.4355C2.00591 21.8809 0.560425 19.8379 0.560425 16.7284V5.94858C0.560425 5.57283 0.581404 5.21283 0.623363 4.86858C0.989456 1.84794 2.92481 0.0884399 5.95006 0.0884399H14.0534ZM14.0439 1.72757H5.95006C3.37378 1.72757 2.0678 3.14845 2.0678 5.94858V16.7284C2.0678 19.5285 3.37378 20.9494 5.95006 20.9494H14.0439C16.6192 20.9494 17.9168 19.5285 17.9168 16.7284V5.94858C17.9168 3.14845 16.6192 1.72757 14.0439 1.72757ZM13.7702 15.2872C14.1835 15.2872 14.5181 15.6517 14.5181 16.1017C14.5181 16.5517 14.1835 16.9162 13.7702 16.9162H6.20601C5.79271 16.9162 5.45704 16.5517 5.45704 16.1017C5.45704 15.6517 5.79271 15.2872 6.20601 15.2872H13.7702ZM13.7702 10.5183C14.0586 10.4846 14.3408 10.6331 14.495 10.8997C14.6492 11.1686 14.6492 11.5083 14.495 11.7772C14.3408 12.0438 14.0586 12.1923 13.7702 12.1586H6.20601C5.82208 12.1113 5.53152 11.7592 5.53152 11.3385C5.53152 10.9177 5.82208 10.5645 6.20601 10.5183H13.7702ZM9.09279 5.7607C9.47671 5.80683 9.76728 6.16008 9.76728 6.58083C9.76728 7.00046 9.47671 7.35371 9.09279 7.39983H6.21545C5.83047 7.35371 5.53991 7.00046 5.53991 6.58083C5.53991 6.16008 5.83047 5.80683 6.21545 5.7607H9.09279Z" fill="#666666"/>
</svg>
