<svg width="19" height="19" viewBox="0 0 19 19" fill="none" xmlns="http://www.w3.org/2000/svg">
<path d="M17.2188 9.5C17.2187 11.5471 16.4055 13.5104 14.958 14.958C13.5104 16.4055 11.5471 17.2188 9.5 17.2188C7.45286 17.2188 5.48957 16.4055 4.04202 14.958C2.59447 13.5104 1.78125 11.5471 1.78125 9.5C1.78125 7.45286 2.59447 5.48957 4.04202 4.04202C5.48957 2.59447 7.45286 1.78125 9.5 1.78125C11.5471 1.78125 13.5104 2.59447 14.958 4.04202C16.4055 5.48957 17.2187 7.45286 17.2188 9.5ZM0 9.5C0 12.0196 1.00089 14.4359 2.78249 16.2175C4.56408 17.9991 6.98044 19 9.5 19C12.0196 19 14.4359 17.9991 16.2175 16.2175C17.9991 14.4359 19 12.0196 19 9.5C19 6.98044 17.9991 4.56408 16.2175 2.78249C14.4359 1.00089 12.0196 0 9.5 0C6.98044 0 4.56408 1.00089 2.78249 2.78249C1.00089 4.56408 0 6.98044 0 9.5ZM8.60938 4.45312V9.5C8.60938 9.79688 8.75781 10.0752 9.00644 10.2422L12.5689 12.6172C12.9771 12.8918 13.5301 12.7805 13.8047 12.3686C14.0793 11.9566 13.968 11.4074 13.5561 11.1328L10.3906 9.025V4.45312C10.3906 3.95957 9.99355 3.5625 9.5 3.5625C9.00645 3.5625 8.60938 3.95957 8.60938 4.45312Z" fill="#666666"/>
</svg>
