<svg width="14" height="14" viewBox="0 0 14 14" fill="none" xmlns="http://www.w3.org/2000/svg">
<path d="M1.91035 8.92247C1.41456 8.27835 1.16666 7.9563 1.16666 6.99998C1.16666 6.04366 1.41456 5.72162 1.91035 5.07751C2.90031 3.79139 4.56056 2.33331 7 2.33331C9.43944 2.33331 11.0997 3.79139 12.0896 5.07751C12.5854 5.72162 12.8333 6.04366 12.8333 6.99998C12.8333 7.9563 12.5854 8.27835 12.0896 8.92247C11.0997 10.2085 9.43944 11.6666 7 11.6666C4.56056 11.6666 2.90031 10.2085 1.91035 8.92247Z" stroke="#8A8A8A" stroke-width="1.5"/>
<path d="M8.75 7C8.75 7.96652 7.96652 8.75 7 8.75C6.03347 8.75 5.25 7.96652 5.25 7C5.25 6.03347 6.03347 5.25 7 5.25C7.96652 5.25 8.75 6.03347 8.75 7Z" stroke="#8A8A8A" stroke-width="1.5"/>
</svg>
