<svg width="25" height="21" viewBox="0 0 25 21" fill="none" xmlns="http://www.w3.org/2000/svg">
<path d="M20.9388 8.09601C21.9811 7.53238 22.5022 7.25057 22.7875 6.79649C23.0727 6.34241 23.0727 5.79466 23.0727 4.69917V3.97103C23.0727 2.57047 23.0727 1.8702 22.59 1.4351C22.1072 1 21.3302 1 19.7763 1H4.39298C2.83904 1 2.06206 1 1.57931 1.4351C1.09656 1.8702 1.09656 2.57047 1.09656 3.97103V4.69917C1.09656 5.79466 1.09656 6.34241 1.38181 6.79649C1.66706 7.25057 2.18819 7.53238 3.23046 8.09601L6.43131 9.82696C7.13062 10.2051 7.48027 10.3942 7.73062 10.603C8.25198 11.0378 8.57294 11.5487 8.71837 12.1754C8.78821 12.4762 8.78821 12.8283 8.78821 13.5325V16.3503C8.78821 17.3104 8.78821 17.7904 9.06503 18.1647C9.34185 18.5389 9.83349 18.7235 10.8168 19.0928C12.8811 19.868 13.9132 20.2556 14.6472 19.8146C15.3811 19.3736 15.3811 18.3659 15.3811 16.3503V13.5325C15.3811 12.8283 15.3811 12.4762 15.4509 12.1754C15.5963 11.5487 15.9173 11.0378 16.4387 10.603" stroke="#666666" stroke-width="2" stroke-linecap="round"/>
</svg>
