<svg width="23" height="21" viewBox="0 0 23 21" fill="none" xmlns="http://www.w3.org/2000/svg">
<g clip-path="url(#clip0_105_515)">
<path d="M14.3306 13.3751C14.584 12.812 14.7351 12.1377 14.7351 11.3334C14.7351 9.04883 13.3243 7.39203 11.9888 6.40271C11.3036 5.89515 10.426 6.42158 10.426 7.25002C10.426 7.8124 10.1617 8.74887 9.6261 9.43847C9.0409 10.1919 8.28525 9.43935 8.23237 8.5024C8.20819 8.0742 7.74321 7.92257 7.36936 8.1598C6.55166 8.67867 5.57837 9.70955 5.57837 11.3334C5.57837 15.0666 8.42712 16 9.85154 16C10.5908 16 11.6658 15.8075 12.6191 15.2478" stroke="#666666" stroke-width="1.5" stroke-linecap="round"/>
<path d="M19.3135 10.75C19.3135 14.8747 19.3135 16.9372 17.9725 18.2186C16.6316 19.5 14.4732 19.5 10.1567 19.5C5.8402 19.5 3.68194 19.5 2.34098 18.2186C1 16.9372 1 14.8747 1 10.75C1 6.62521 1 4.56281 2.34098 3.28141C3.68194 2 5.8402 2 10.1567 2C14.4732 2 16.6316 2 17.9725 3.28141C18.8641 4.13343 19.1629 5.33073 19.263 7.25" stroke="#666666" stroke-width="1.5" stroke-linecap="round"/>
</g>
<defs>
<clipPath id="clip0_105_515">
<rect width="21.9762" height="21" fill="white" transform="translate(0.0691299)"/>
</clipPath>
</defs>
</svg>
