<svg width="108" height="35" viewBox="0 0 108 35" fill="none" xmlns="http://www.w3.org/2000/svg">
<rect width="39" height="35" rx="5" fill="#0081BF"/>
<path d="M12.5771 6.67188V28H8.19727V6.67188H12.5771ZM25.79 6.67188V28H21.4102V6.67188H25.79ZM32.3525 6.67188V10.1143H14.9502V6.67188H32.3525Z" fill="white"/>
<path d="M63.1279 15.3584V18.7861H51.9951V15.3584H63.1279ZM53.2988 6.67188V28H48.9043V6.67188H53.2988ZM66.2627 6.67188V28H61.8828V6.67188H66.2627ZM79.1973 24.2061V12.1504H83.416V28H79.4463L79.1973 24.2061ZM79.666 20.9541L80.9111 20.9248C80.9111 21.9795 80.7891 22.9609 80.5449 23.8691C80.3008 24.7676 79.9346 25.5488 79.4463 26.2129C78.958 26.8672 78.3428 27.3799 77.6006 27.751C76.8584 28.1123 75.9844 28.293 74.9785 28.293C74.207 28.293 73.4941 28.1855 72.8398 27.9707C72.1953 27.7461 71.6387 27.3994 71.1699 26.9307C70.7109 26.4521 70.3496 25.8418 70.0859 25.0996C69.832 24.3477 69.7051 23.4443 69.7051 22.3896V12.1504H73.9238V22.4189C73.9238 22.8877 73.9775 23.2832 74.085 23.6055C74.2021 23.9277 74.3633 24.1914 74.5684 24.3965C74.7734 24.6016 75.0127 24.748 75.2861 24.8359C75.5693 24.9238 75.8818 24.9678 76.2236 24.9678C77.0928 24.9678 77.7764 24.792 78.2744 24.4404C78.7822 24.0889 79.1387 23.6104 79.3438 23.0049C79.5586 22.3896 79.666 21.7061 79.666 20.9541ZM86.6387 5.5H90.8574V24.3672L90.4326 28H86.6387V5.5ZM100.892 19.9141V20.2217C100.892 21.4033 100.765 22.4873 100.511 23.4736C100.267 24.46 99.8857 25.3145 99.3682 26.0371C98.8506 26.75 98.2061 27.3066 97.4346 27.707C96.6729 28.0977 95.7744 28.293 94.7393 28.293C93.7725 28.293 92.9326 28.0977 92.2197 27.707C91.5166 27.3164 90.9258 26.7646 90.4473 26.0518C89.9688 25.3389 89.583 24.5039 89.29 23.5469C88.9971 22.5898 88.7773 21.5449 88.6309 20.4121V19.7383C88.7773 18.6055 88.9971 17.5605 89.29 16.6035C89.583 15.6465 89.9688 14.8115 90.4473 14.0986C90.9258 13.3857 91.5166 12.834 92.2197 12.4434C92.9229 12.0527 93.7529 11.8574 94.71 11.8574C95.7549 11.8574 96.6631 12.0576 97.4346 12.458C98.2158 12.8486 98.8604 13.4053 99.3682 14.1279C99.8857 14.8408 100.267 15.6904 100.511 16.6768C100.765 17.6533 100.892 18.7324 100.892 19.9141ZM96.6729 20.2217V19.9141C96.6729 19.2695 96.624 18.6641 96.5264 18.0977C96.4385 17.5215 96.2822 17.0186 96.0576 16.5889C95.833 16.1494 95.5254 15.8027 95.1348 15.5488C94.7539 15.2949 94.2607 15.168 93.6553 15.168C93.0791 15.168 92.5908 15.2656 92.1904 15.4609C91.79 15.6562 91.458 15.9297 91.1943 16.2812C90.9404 16.6328 90.75 17.0527 90.623 17.541C90.4961 18.0195 90.418 18.5469 90.3887 19.123V21.042C90.418 21.8135 90.5449 22.4971 90.7695 23.0928C91.0039 23.6787 91.3555 24.1426 91.8242 24.4844C92.3027 24.8164 92.9229 24.9824 93.6846 24.9824C94.2803 24.9824 94.7734 24.8652 95.1641 24.6309C95.5547 24.3965 95.8574 24.0645 96.0723 23.6348C96.2969 23.2051 96.4531 22.7021 96.541 22.126C96.6289 21.54 96.6729 20.9053 96.6729 20.2217Z" fill="#676767"/>
</svg>
