<svg width="17" height="18" viewBox="0 0 17 18" fill="none" xmlns="http://www.w3.org/2000/svg">
<path d="M10.4115 0.970542C11.6293 -0.323514 13.6046 -0.323514 14.8224 0.970542L16.0866 2.31396C17.3045 3.60802 17.3045 5.70693 16.0866 7.00099L6.58396 17.0986C6.04058 17.676 5.30387 18 4.53492 18H0.643236C0.281712 18 -0.00880572 17.6835 0.000204044 17.2995L0.0980975 13.1268C0.11756 12.3381 0.421247 11.5863 0.946155 11.0285L10.4115 0.970542ZM9.67579 3.68367L1.85582 11.9951C1.56405 12.3052 1.39495 12.7238 1.38414 13.1617L1.30246 16.6325L4.53492 16.633C4.91527 16.633 5.28105 16.4907 5.56976 16.2337L5.67429 16.132L13.533 7.78134L9.67579 3.68367ZM13.9127 1.93716C13.1973 1.17696 12.0366 1.17696 11.3212 1.93716L10.5861 2.71696L14.4424 6.81463L15.177 6.03437C15.8526 5.31639 15.8902 4.17637 15.2896 3.4115L15.177 3.28058L13.9127 1.93716Z" fill="white"/>
</svg>
