<svg width="22" height="28" viewBox="0 0 22 28" fill="none" xmlns="http://www.w3.org/2000/svg">
<path fill-rule="evenodd" clip-rule="evenodd" d="M22 22.4908C22 27.0686 15.7222 27.5978 11.0014 27.5978L10.6636 27.5975C7.65584 27.5902 0 27.4003 0 22.4631C0 17.9787 6.02549 17.3794 10.7104 17.3568L11.3392 17.3564C14.3467 17.3637 22 17.5536 22 22.4908ZM11.0014 19.4394C5.08333 19.4394 2.08333 20.4561 2.08333 22.4631C2.08333 24.4881 5.08333 25.5144 11.0014 25.5144C16.9181 25.5144 19.9167 24.4978 19.9167 22.4908C19.9167 20.4658 16.9181 19.4394 11.0014 19.4394ZM11.0014 0C15.0681 0 18.375 3.30833 18.375 7.375C18.375 11.4417 15.0681 14.7486 11.0014 14.7486H10.9569C6.89861 14.7361 3.61111 11.4264 3.62496 7.37083C3.62496 3.30833 6.93333 0 11.0014 0ZM11.0014 1.98333C8.02778 1.98333 5.6083 4.40139 5.6083 7.375C5.59861 10.3389 8 12.7556 10.9611 12.7667L11.0014 13.7583V12.7667C13.9736 12.7667 16.3917 10.3472 16.3917 7.375C16.3917 4.40139 13.9736 1.98333 11.0014 1.98333Z" fill="#464646"/>
</svg>
