<svg width="23" height="21" viewBox="0 0 23 21" fill="none" xmlns="http://www.w3.org/2000/svg">
<path d="M12.095 0.500488C14.7375 0.500488 16.5772 2.47918 16.7731 5.38194L19.6612 3.98593C20.9107 3.38309 22.2741 4.40738 22.3733 5.96388L22.3791 6.14578V14.7095C22.3791 16.3054 21.0619 17.4098 19.8054 16.9302L19.6607 16.8678L16.7731 15.4717C16.5767 18.3726 14.7333 20.3535 12.095 20.3535H5.25588C2.45747 20.3535 0.560425 18.136 0.560425 14.9513V5.90263C0.560425 2.71796 2.45747 0.500488 5.25588 0.500488H12.095ZM12.095 2.43535H5.25588C3.35708 2.43535 2.19685 3.79155 2.19685 5.90263V14.9513C2.19685 17.0624 3.35708 18.4186 5.25588 18.4186H12.095C13.9892 18.4186 15.1541 17.0589 15.1541 14.9513L15.1539 14.067C15.1535 14.0533 15.1534 14.0395 15.1536 14.0257L15.1541 5.90263C15.1541 3.79205 13.9932 2.43535 12.095 2.43535ZM20.3539 5.75247L20.2799 5.77718L16.7905 7.46213V13.3906L20.2794 15.0766C20.4763 15.1716 20.6892 15.0306 20.7341 14.7999L20.7427 14.7095V6.14578C20.7427 5.89451 20.5514 5.71457 20.3539 5.75247Z" fill="#666666"/>
</svg>
