<svg width="24" height="18" viewBox="0 0 24 18" fill="none" xmlns="http://www.w3.org/2000/svg">
<path d="M23 8.50001C23 8.50001 19 1 12 1C11.2931 0.99834 6.79337 2 6.06 2.56001C3.96914 4.15662 2.24389 6.1819 1 8.50001C1 8.50001 5 16.5 12 16.5C14.1491 16.4649 16.2306 15.743 17.94 14.44L20.84 11.69M23 8.50001C22.393 9.63562 21.6691 10.7047 20.84 11.69M23 8.50001L20.84 11.69M14.0995 11.4759C13.8248 11.7707 13.1945 11.5819 12.8265 11.7459C12.4585 11.9098 12.2358 11.7388 11.8329 11.7459C11.4301 11.753 11.03 11.6789 10.6565 11.528C10.2829 11.3771 9.94357 11.1525 9.6587 10.8677C9.37382 10.5828 9.14924 10.2435 8.99836 9.8699C8.84747 9.49635 8.77337 9.09623 8.78048 8.69342C8.78759 8.29061 8.87576 7.89336 9.03973 7.52536C9.20369 7.15736 9.4401 6.82616 9.73485 6.55151L10.8016 6L12.0964 5.61999L14 6L15.2992 7.35386L15.5 8.5L15.2992 10.1236L14.0995 11.4759Z" stroke="#464646" stroke-width="2" stroke-linecap="round" stroke-linejoin="round"/>
</svg>
