<svg width="21" height="23" viewBox="0 0 21 23" fill="none" xmlns="http://www.w3.org/2000/svg">
<path fill-rule="evenodd" clip-rule="evenodd" d="M19.3819 14.6287C19.7852 14.6636 20.087 15.0699 20.0567 15.5348L19.8712 18.3588C19.7178 20.6887 18.0117 22.5133 15.9853 22.5133H4.65692C2.6305 22.5133 0.924399 20.6887 0.771075 18.3588L0.585523 15.5348C0.555249 15.0699 0.857991 14.6636 1.26132 14.6287C1.66661 14.6118 2.01622 14.9416 2.04747 15.4076L2.23205 18.2305C2.32775 19.6847 3.39224 20.8249 4.65692 20.8249H15.9853C17.25 20.8249 18.3155 19.6847 18.4102 18.2305L18.5957 15.4076C18.627 14.9416 18.9854 14.6107 19.3819 14.6287ZM11.5811 0.294495C13.0489 0.294495 14.2648 1.56218 14.448 3.19736L16.3714 3.19834C18.4183 3.19834 20.0824 5.12193 20.0824 7.48787V11.3587C20.0824 11.6592 19.9437 11.9361 19.7201 12.0869C17.3096 13.7139 14.256 14.6629 11.0534 14.7895L11.0538 16.814C11.0538 17.28 10.7256 17.6581 10.3213 17.6581C9.91701 17.6581 9.58888 17.28 9.58888 16.814L9.58824 14.7898C6.38887 14.6643 3.33506 13.7152 0.922739 12.0869C0.698124 11.9361 0.560425 11.6592 0.560425 11.3587V7.47662C0.560425 5.11743 2.22941 3.19834 4.28122 3.19834L6.19466 3.19736C6.3778 1.56218 7.59377 0.294495 9.06152 0.294495H11.5811ZM16.3714 4.88669H4.28122C3.03705 4.88669 2.02531 6.04827 2.02531 7.47662V10.8668C4.34344 12.3185 7.2659 13.1142 10.3077 13.1157L10.3213 13.1142L10.3322 13.1147L10.7972 13.1091C13.674 13.0301 16.4184 12.2434 18.6175 10.8668V7.48787C18.6175 6.05278 17.6107 4.88669 16.3714 4.88669ZM11.5811 1.98284H9.06152C8.40394 1.98284 7.84885 2.49866 7.68487 3.19764H12.9578C12.7938 2.49866 12.2387 1.98284 11.5811 1.98284Z" fill="black" fill-opacity="0.6"/>
</svg>
